<svg xmlns="http://www.w3.org/2000/svg" viewBox="0 0 1200 630" width="1200" height="630">
  <defs>
    <linearGradient id="bg2" x1="0%" y1="0%" x2="100%" y2="100%">
      <stop offset="0%" style="stop-color:#0f172a;stop-opacity:1" />
      <stop offset="100%" style="stop-color:#1e293b;stop-opacity:1" />
    </linearGradient>
  </defs>
  
  <rect width="1200" height="630" fill="url(#bg2)"/>
  
  <!-- Docker/Container visual -->
  <rect x="200" y="250" width="180" height="130" rx="8" fill="#2563eb" opacity="0.8"/>
  <text x="290" y="290" font-family="system-ui" font-size="14" fill="white" text-anchor="middle">OpenTelemetry</text>
  <text x="290" y="310" font-family="system-ui" font-size="14" fill="white" text-anchor="middle">Collector</text>
  <text x="290" y="350" font-family="system-ui" font-size="24" fill="white" text-anchor="middle">[OTel]</text>
  
  <!-- Arrows -->
  <path d="M 390 315 L 450 315" stroke="#64748b" stroke-width="2" fill="none"/>
  
  <!-- Storage backends -->
  <rect x="460" y="200" width="120" height="70" rx="6" fill="#059669" opacity="0.8"/>
  <text x="520" y="240" font-family="system-ui" font-size="14" fill="white" text-anchor="middle">Prometheus</text>
  
  <rect x="460" y="280" width="120" height="70" rx="6" fill="#7c3aed" opacity="0.8"/>
  <text x="520" y="320" font-family="system-ui" font-size="14" fill="white" text-anchor="middle">Jaeger</text>
  
  <rect x="460" y="360" width="120" height="70" rx="6" fill="#ea580c" opacity="0.8"/>
  <text x="520" y="400" font-family="system-ui" font-size="14" fill="white" text-anchor="middle">Loki</text>
  
  <!-- Grafana -->
  <path d="M 590 315 L 650 315" stroke="#64748b" stroke-width="2" fill="none"/>
  <rect x="660" y="250" width="140" height="130" rx="8" fill="#f97316" opacity="0.8"/>
  <text x="730" y="320" font-family="system-ui" font-size="16" fill="white" text-anchor="middle">Grafana</text>
  <text x="730" y="350" font-family="system-ui" font-size="20" fill="white" text-anchor="middle">[Viz]</text>
  
  <!-- Docker Compose icon -->
  <rect x="900" y="280" width="100" height="70" rx="6" fill="#0db7ed" opacity="0.8"/>
  <text x="950" y="320" font-family="system-ui" font-size="14" fill="white" text-anchor="middle">Docker</text>
  <text x="950" y="340" font-family="system-ui" font-size="14" fill="white" text-anchor="middle">Compose</text>
  
  <!-- Title -->
  <text x="600" y="80" font-family="system-ui" font-size="42" font-weight="bold" fill="white" text-anchor="middle">Single-Node Observability Setup</text>
  <text x="600" y="130" font-family="system-ui" font-size="22" fill="#94a3b8" text-anchor="middle">Production-Ready Docker Compose Deployment</text>
  
  <!-- Author -->
  <text x="600" y="560" font-family="system-ui" font-size="18" fill="#64748b" text-anchor="middle">Shivam Mishra | blog.shivamm.info</text>
</svg>
